<svg width="35" height="35" viewBox="0 0 35 35" fill="none" xmlns="http://www.w3.org/2000/svg">
<path d="M23.3333 11.6667V10.2083C23.3333 8.66124 22.7187 7.17751 21.6247 6.08354C20.5308 4.98958 19.0471 4.375 17.5 4.375C15.9529 4.375 14.4691 4.98958 13.3752 6.08354C12.2812 7.17751 11.6666 8.66124 11.6666 10.2083V11.6667" stroke="#fff" stroke-width="2.91667" stroke-linecap="round"/>
<path fill-rule="evenodd" clip-rule="evenodd" d="M5.65687 11.4902C4.375 12.7706 4.375 14.8342 4.375 18.9583V20.4167C4.375 25.916 4.375 28.6665 6.08417 30.3742C7.79187 32.0833 10.5423 32.0833 16.0417 32.0833H18.9583C24.4577 32.0833 27.2081 32.0833 28.9158 30.3742C30.625 28.6665 30.625 25.916 30.625 20.4167V18.9583C30.625 14.8342 30.625 12.7706 29.3431 11.4902C28.0627 10.2083 25.9992 10.2083 21.875 10.2083H13.125C9.00083 10.2083 6.93729 10.2083 5.65687 11.4902ZM17.5 21.875C17.8868 21.875 18.2577 21.7214 18.5312 21.4479C18.8047 21.1744 18.9583 20.8034 18.9583 20.4167C18.9583 20.0299 18.8047 19.659 18.5312 19.3855C18.2577 19.112 17.8868 18.9583 17.5 18.9583C17.1132 18.9583 16.7423 19.112 16.4688 19.3855C16.1953 19.659 16.0417 20.0299 16.0417 20.4167C16.0417 20.8034 16.1953 21.1744 16.4688 21.4479C16.7423 21.7214 17.1132 21.875 17.5 21.875ZM21.875 20.4167C21.8753 21.3217 21.5949 22.2046 21.0726 22.9437C20.5502 23.6829 19.8116 24.2419 18.9583 24.5438V27.7083H16.0417V24.5438C15.285 24.2766 14.6164 23.8066 14.1088 23.1851C13.6012 22.5636 13.2743 21.8145 13.1638 21.0198C13.0533 20.225 13.1634 19.4151 13.4821 18.6787C13.8008 17.9423 14.3158 17.3077 14.9709 16.8442C15.6259 16.3807 16.3958 16.1063 17.1963 16.0509C17.9968 15.9955 18.7971 16.1612 19.5098 16.53C20.2225 16.8987 20.82 17.4563 21.2372 18.1418C21.6543 18.8273 21.875 19.6142 21.875 20.4167Z" fill="#fff"/>
</svg>
